<?xml version="1.0" encoding="UTF-8" standalone="no"?>
<!DOCTYPE svg PUBLIC "-//W3C//DTD SVG 1.1//EN" "http://www.w3.org/Graphics/SVG/1.1/DTD/svg11.dtd">
<svg width="100%" height="100%" viewBox="0 0 368 230" version="1.1" xmlns="http://www.w3.org/2000/svg" xmlns:xlink="http://www.w3.org/1999/xlink" xml:space="preserve" xmlns:serif="http://www.serif.com/" style="fill-rule:evenodd;clip-rule:evenodd;stroke-linejoin:round;stroke-miterlimit:2;">
    <g transform="matrix(1,0,0,1,-3168.31,-502.558)">
        <g transform="matrix(1,0,0,1,1768.51,-200.931)">
            <text x="1396.73px" y="913.226px" style="font-family:'PatuaOne-Regular', 'Patua One';font-size:96px;fill:rgb(96,62,174);">Hotel</text>
            <text x="1621.95px" y="913.226px" style="font-family:'PatuaOne-Regular', 'Patua One';font-size:96px;fill:rgb(172,162,242);">S<tspan x="1672.35px 1726.01px " y="913.226px 913.226px ">ys</tspan></text>
        </g>
        <g transform="matrix(0.771465,0,0,0.771465,1758.01,-717.027)">
            <g transform="matrix(-1,0,0,1,3502.61,211.096)">
                <g transform="matrix(2.10618,0,0,2.10618,-2918.55,-2065.68)">
                    <path d="M2077.13,1657.43L2077.13,1642.36" style="fill:none;fill-rule:nonzero;"/>
                </g>
                <g transform="matrix(2.10618,0,0,2.10618,-2918.55,-2065.68)">
                    <path d="M2077.13,1642.36C2074.51,1641.4 2072.75,1640.31 2071.85,1639.1L2072.81,1631.13L2095.28,1631.13L2096.24,1639.1C2095.21,1640.31 2093.45,1641.4 2090.96,1642.36" style="fill:rgb(96,62,174);fill-rule:nonzero;"/>
                </g>
                <g transform="matrix(2.10618,0,0,2.10618,-2918.55,-2065.68)">
                    <path d="M2090.96,1642.36L2090.96,1686.23" style="fill:none;fill-rule:nonzero;"/>
                </g>
                <g transform="matrix(2.10618,0,0,2.10618,-2918.55,-2065.68)">
                    <path d="M2090.96,1686.23L2096.24,1697.37L2072.81,1697.37L2071.85,1689.4C2072.68,1688.31 2074.45,1687.26 2077.13,1686.23L2077.13,1667.03L2056.01,1667.03L2056.01,1686.23C2058.57,1687.26 2060.33,1688.31 2061.29,1689.4L2060.33,1697.37L2037.87,1697.37L2036.91,1689.4C2037.74,1688.31 2039.5,1687.26 2042.19,1686.23L2042.19,1642.36C2039.57,1641.4 2037.81,1640.31 2036.91,1639.1L2037.87,1631.13L2060.33,1631.13L2061.29,1639.1C2060.27,1640.31 2058.51,1641.4 2056.01,1642.36L2056.01,1657.43L2077.13,1657.43" style="fill:rgb(96,62,174);fill-rule:nonzero;"/>
                </g>
            </g>
            <g transform="matrix(-0.341153,0.759028,1.35687,0.609859,539.613,-89.3877)">
                <path d="M1233.46,1432.37L1141.37,1432.37L1141.37,1448.83L1220.23,1448.83L1233.46,1432.37Z" style="fill:rgb(96,62,174);"/>
            </g>
        </g>
    </g>
</svg>
